# xmcd CD database file
#
# Track frame offsets:
#	150
#	17427
#	40667
#	55675
#	73517
#	88212
#	105265
#	115785
#	132592
#	152257
#	156497
#	173172
#	182987
#	205560
#	226177
#	241955
#	255992
#	270272
#	286150
#	302237
#	310852
#
# Disc length: 4413 seconds
#
# Revision: 1
# Processed by: cddbd v1.5.1PL0 Copyright (c) Steve Scherf et al.
# Submitted via: CDex 1.51
#
DISCID=07113b15
DTITLE=Mississippi John Hurt - Make Me A Pallet
DYEAR=2002
DGENRE=Blues
TTITLE0=Nobody's Business but Mine
TTITLE1=The Angels Laid Him Away
TTITLE2=Baby What's Wrong with You
TTITLE3=Casey Jones
TTITLE4=Candy Man
TTITLE5=Lonesome Blues
TTITLE6=My Creole Belle
TTITLE7=Make Me a Pallet on Your Floor
TTITLE8=Trouble I had all My Days
TTITLE9=C.H.I.C.K.E.N. Blues
TTITLE10=Coffee Blues
TTITLE11=Shake that Thing
TTITLE12=Monday Morning Blues
TTITLE13=Frankie and Albert
TTITLE14=Salty Dog
TTITLE15=Spike Drivers Blues
TTITLE16=Here I Am, Lord, Send Me
TTITLE17=Talking Casey
TTITLE18=Hot Time in the Old Town Tonight
TTITLE19=I'm Satisfied
TTITLE20=Richland Women Blues
EXTD=Blues Twin Pack  1 of 2 YEAR: 2002
EXTT0=
EXTT1=
EXTT2=
EXTT3=
EXTT4=
EXTT5=
EXTT6=
EXTT7=
EXTT8=
EXTT9=
EXTT10=
EXTT11=
EXTT12=
EXTT13=
EXTT14=
EXTT15=
EXTT16=
EXTT17=
EXTT18=
EXTT19=
EXTT20=
PLAYORDER=
